<?xml version="1.0" standalone="no"?>
<!DOCTYPE svg PUBLIC "-//W3C//DTD SVG 20010904//EN"
 "http://www.w3.org/TR/2001/REC-SVG-20010904/DTD/svg10.dtd">
<svg version="1.0" xmlns="http://www.w3.org/2000/svg"
 width="500.000000pt" height="500.000000pt" viewBox="0 0 500.000000 500.000000"
 preserveAspectRatio="xMidYMid meet">

<g transform="translate(0.000000,500.000000) scale(0.100000,-0.100000)"
fill="#000000" stroke="none">
<path d="M1945 3760 c-6 -10 121 -398 136 -414 18 -20 8 42 -20 123 -34 97
-30 125 19 159 40 27 56 27 96 3 25 -15 37 -36 63 -112 18 -52 37 -98 42 -103
27 -29 -11 113 -52 196 -24 47 -69 72 -114 64 -39 -8 -85 -41 -85 -62 0 -33
-20 1 -45 76 -15 44 -28 80 -30 80 -2 0 -6 -4 -10 -10z"/>
<path d="M2401 3723 c-52 -27 -74 -64 -78 -130 -3 -42 1 -68 14 -93 23 -44 95
-84 137 -75 43 8 76 32 76 55 0 20 0 20 -20 0 -15 -15 -33 -20 -69 -20 -44 0
-52 4 -85 40 -41 46 -46 84 -18 139 35 69 118 87 170 38 41 -38 52 -71 52
-156 0 -48 4 -83 11 -87 8 -5 10 24 7 102 -3 83 -8 115 -21 136 -40 59 -118
82 -176 51z"/>
<path d="M2706 3693 c-6 -24 -43 -200 -50 -240 -3 -18 -1 -33 4 -33 9 0 16 22
41 130 16 70 53 110 103 110 25 0 36 4 36 15 0 26 -47 29 -86 6 l-36 -22 6 26
c7 28 -10 35 -18 8z"/>
<path d="M2896 3604 c-85 -58 -90 -194 -8 -252 100 -71 232 1 232 127 0 123
-124 192 -224 125z m145 -21 c69 -41 75 -131 14 -193 -31 -31 -41 -35 -86 -35
-46 0 -54 4 -85 37 -26 29 -34 46 -34 76 0 43 39 108 73 122 36 14 87 11 118
-7z"/>
<path d="M3315 3409 c-55 -66 -108 -127 -119 -135 -31 -21 -77 -17 -119 11
-33 23 -37 24 -37 8 0 -11 18 -30 42 -46 82 -53 107 -40 238 120 99 121 126
163 102 163 -5 0 -53 -54 -107 -121z"/>
<path d="M1757 3499 c-84 -63 -76 -195 15 -263 37 -26 112 -27 152 -1 37 24
73 105 47 105 -5 0 -12 -11 -15 -24 -8 -31 -64 -66 -106 -66 -18 0 -48 9 -67
21 -87 54 -83 172 6 209 63 26 129 -10 186 -99 28 -45 51 -65 59 -52 3 5 -12
33 -34 62 -22 30 -40 57 -40 61 0 4 -19 21 -42 38 -51 37 -118 41 -161 9z"/>
<path d="M1641 3006 c-15 -18 -8 -46 13 -46 20 0 27 25 12 45 -11 15 -13 15
-25 1z"/>
<path d="M3326 3004 c-7 -19 12 -47 25 -38 5 3 9 16 9 30 0 27 -24 33 -34 8z"/>
<path d="M1144 2839 c-11 -18 8 -28 84 -44 132 -29 226 -56 250 -71 27 -18 45
-59 37 -85 -3 -11 -8 -28 -11 -39 -3 -13 -1 -20 9 -20 20 0 30 72 17 121 -6
22 -21 46 -35 55 -42 27 -341 98 -351 83z"/>
<path d="M3543 2790 c-25 -11 -51 -33 -63 -52 -34 -57 -23 -154 22 -182 30
-18 33 3 5 32 -56 59 -15 158 75 182 73 20 151 -36 151 -109 0 -67 -51 -105
-168 -124 -62 -9 -75 -15 -75 -30 0 -13 5 -17 18 -13 9 3 46 10 82 17 81 15
113 30 140 69 32 45 36 89 12 144 -17 37 -30 51 -64 66 -54 25 -82 25 -135 0z"/>
<path d="M1336 2590 c-69 -13 -127 -106 -110 -177 25 -102 153 -155 233 -96
48 37 66 71 66 128 0 104 -80 165 -189 145z m112 -50 c37 -23 66 -81 58 -116
-10 -39 -55 -83 -92 -90 -116 -22 -198 71 -149 166 30 59 120 78 183 40z"/>
<path d="M3485 2450 c-11 -18 -2 -22 106 -36 107 -14 128 -24 149 -74 10 -25
9 -34 -10 -65 -12 -19 -33 -38 -46 -41 -23 -6 -98 -1 -186 13 -30 4 -38 2 -38
-10 0 -17 27 -23 140 -33 44 -3 86 -2 102 5 55 21 83 104 54 161 l-16 32 33
-6 c100 -17 137 -19 137 -4 0 11 -39 19 -172 37 -95 12 -189 25 -209 28 -23 3
-39 1 -44 -7z"/>
<path d="M1256 2241 c-10 -15 4 -58 24 -76 15 -14 17 -21 7 -36 -6 -10 -9 -21
-6 -24 4 -3 66 10 140 28 98 25 135 39 137 51 4 20 2 20 -83 -4 -115 -33 -166
-23 -197 38 -9 18 -19 29 -22 23z"/>
<path d="M3465 2151 c-45 -20 -69 -59 -73 -120 -2 -32 0 -61 5 -64 5 -3 9 15
9 42 -1 56 15 80 71 106 96 46 213 -59 173 -156 -27 -65 -112 -76 -217 -29
-74 34 -83 36 -83 16 0 -14 124 -72 177 -82 47 -9 115 26 136 71 33 68 10 161
-48 199 -31 20 -120 30 -150 17z"/>
<path d="M1508 2100 c-119 -58 -148 -94 -148 -181 0 -47 4 -55 40 -91 40 -40
40 -40 106 -36 63 4 69 6 105 46 37 39 39 45 39 103 0 56 -3 64 -34 95 -33 33
-66 45 -66 24 0 -6 11 -15 23 -21 32 -14 57 -60 57 -102 0 -70 -91 -132 -166
-113 -43 11 -84 59 -84 99 0 54 36 95 123 139 42 22 77 44 77 48 0 19 -18 16
-72 -10z"/>
<path d="M3300 1891 c0 -6 34 -36 75 -67 95 -74 106 -97 80 -181 -4 -13 -3
-23 2 -23 14 0 33 46 33 81 0 26 2 28 19 20 17 -10 31 -6 31 9 0 9 -217 170
-230 170 -5 0 -10 -4 -10 -9z"/>
<path d="M1633 1776 c-40 -42 -72 -85 -75 -101 -12 -62 28 -128 88 -144 l28
-7 -59 -57 c-40 -38 -56 -60 -49 -67 7 -7 60 38 164 139 110 106 152 152 145
160 -8 8 -27 -5 -65 -44 -101 -103 -149 -118 -202 -65 -48 48 -36 86 52 175
38 39 70 74 70 78 0 23 -36 -2 -97 -67z"/>
<path d="M3167 1736 c-69 -25 -97 -66 -97 -143 0 -88 63 -153 150 -153 111 0
170 104 124 219 -26 67 -108 102 -177 77z m129 -59 c30 -28 37 -42 41 -83 5
-47 3 -53 -30 -87 -30 -32 -40 -37 -79 -37 -58 0 -123 44 -133 90 -19 86 31
150 116 150 42 0 55 -5 85 -33z"/>
<path d="M1883 1617 c-17 -29 -39 -76 -48 -105 -15 -45 -16 -60 -6 -94 31
-103 145 -134 229 -63 72 60 66 198 -10 245 -39 24 -103 27 -112 5 -4 -12 3
-15 37 -15 52 0 79 -18 102 -66 24 -51 14 -94 -35 -138 -33 -30 -48 -36 -84
-36 -36 0 -50 6 -74 30 -51 51 -51 79 3 182 51 98 50 139 -2 55z"/>
<path d="M2958 1595 c-42 -29 -64 -85 -51 -134 15 -54 138 -301 151 -301 6 0
12 2 12 5 0 3 -31 73 -70 155 -38 82 -70 163 -70 179 0 31 57 91 86 91 19 0
13 24 -7 28 -8 1 -31 -9 -51 -23z"/>
</g>
</svg>
