<svg xmlns="http://www.w3.org/2000/svg" version="1.1" xmlns:xlink="http://www.w3.org/1999/xlink" xmlns:svgjs="http://svgjs.dev/svgjs" width="1000" height="1125" viewBox="0 0 1000 1125"><g transform="matrix(1,0,0,1,0.00011477487282718357,0)"><svg viewBox="0 0 320 360" data-background-color="#ffffff" preserveAspectRatio="xMidYMid meet" height="1125" width="1000" xmlns="http://www.w3.org/2000/svg" xmlns:xlink="http://www.w3.org/1999/xlink"><g id="tight-bounds" transform="matrix(1,0,0,1,-0.00003672795929787753,0)"><svg viewBox="0 0 320 360" height="360" width="320"><g><svg></svg></g><g><svg viewBox="0 0 320 360" height="360" width="320"><g><path transform="translate(-32.1528,-12.1528) scale(3.84303,3.84303)" d="M88.492 50l1.711-2.963c2.946-5.102 1.198-11.626-3.904-14.572l-2.963-1.711v-3.422c0-5.891-4.776-10.667-10.667-10.667h-3.422l-1.711-2.963c-2.946-5.102-9.47-6.85-14.572-3.904l-2.964 1.71-2.963-1.711c-5.102-2.945-11.626-1.197-14.572 3.905l-1.711 2.963h-3.422c-5.891 0-10.667 4.776-10.667 10.667v3.422l-2.963 1.711c-5.102 2.946-6.85 9.47-3.904 14.572l1.71 2.963-1.711 2.963c-2.945 5.102-1.197 11.626 3.905 14.572l2.963 1.711v3.422c0 5.891 4.776 10.667 10.667 10.667h3.422l1.711 2.963c2.946 5.102 9.47 6.85 14.572 3.904l2.963-1.71 2.963 1.711c5.102 2.946 11.626 1.198 14.572-3.904l1.711-2.963h3.422c5.891 0 10.667-4.776 10.667-10.667v-3.422l2.963-1.711c5.102-2.946 6.85-9.47 3.904-14.572zM85.832 33.273c2.252 1.3 3.862 3.399 4.535 5.91 0.673 2.511 0.328 5.135-0.972 7.386l-1.441 2.497-4.618-7.999v-9.236zM73.72 73.72l-15.038 8.682h-17.364l-15.038-8.682-8.682-15.038v-17.364l8.682-15.038 15.038-8.682h17.364l15.038 8.682 8.682 15.038v17.364zM82.401 60.549v8.158l-7.065 4.079zM72.786 75.336l-4.079 7.065h-8.158zM57.065 83.335l-7.065 4.079-7.065-4.079zM39.451 82.401h-8.158l-4.079-7.065zM24.664 72.786l-7.065-4.079v-8.158zM16.665 57.065l-4.079-7.065 4.079-7.065zM17.599 39.451v-8.158l7.065-4.079zM27.214 24.664l4.079-7.065h8.158zM42.935 16.665l7.065-4.079 7.065 4.079zM60.549 17.599h8.158l4.079 7.065zM75.336 27.214l7.065 4.079v8.158zM83.335 42.935l4.079 7.065-4.079 7.065zM72.668 17.599c2.6 0 5.044 1.012 6.883 2.851 1.838 1.838 2.851 4.283 2.851 6.883v2.883l-7.999-4.618-4.618-7.999zM53.43 10.606c2.252-1.3 4.875-1.645 7.386-0.972 2.511 0.673 4.61 2.284 5.91 4.535l1.441 2.497h-9.236l-7.999-4.618zM33.273 14.168c1.3-2.252 3.399-3.862 5.91-4.535 2.511-0.673 5.135-0.328 7.386 0.972l2.497 1.441-7.999 4.618h-9.236zM17.599 27.332c0-2.6 1.012-5.044 2.851-6.883 1.838-1.838 4.283-2.851 6.883-2.851h2.883l-4.618 7.999-7.999 4.618zM10.606 46.57c-1.3-2.252-1.645-4.875-0.972-7.386 0.673-2.511 2.284-4.61 4.535-5.91l2.497-1.441v9.236l-4.618 7.999zM14.168 66.727c-2.252-1.3-3.862-3.399-4.535-5.91-0.673-2.511-0.328-5.135 0.972-7.386l1.441-2.497 4.618 7.999v9.236zM27.332 82.401c-2.6 0-5.044-1.012-6.883-2.851-1.838-1.838-2.851-4.283-2.851-6.883v-2.883l7.999 4.618 4.618 7.999zM46.57 89.394c-2.252 1.3-4.875 1.645-7.386 0.972-2.511-0.673-4.61-2.284-5.91-4.535l-1.441-2.497h9.236l7.999 4.618zM66.727 85.832c-1.3 2.252-3.399 3.862-5.91 4.535-2.511 0.673-5.135 0.328-7.386-0.972l-2.497-1.441 7.999-4.618h9.236zM82.401 72.668c0 2.6-1.012 5.044-2.851 6.883-1.838 1.838-4.283 2.851-6.883 2.851h-2.883l4.618-7.999 7.999-4.618zM90.367 60.816c-0.673 2.511-2.284 4.61-4.535 5.91l-2.497 1.441v-9.236l4.618-7.999 1.441 2.497c1.3 2.253 1.646 4.876 0.973 7.387z" fill="#323660" fill-rule="nonzero" stroke="none" stroke-width="1" stroke-linecap="butt" stroke-linejoin="miter" stroke-miterlimit="10" stroke-dasharray="" stroke-dashoffset="0" font-family="none" font-weight="none" font-size="none" text-anchor="none" style="mix-blend-mode: normal" data-fill-palette-color="tertiary"></path></g><g transform="matrix(1,0,0,1,64,123.11505892253744)"><svg viewBox="0 0 192 113.76988215492511" height="113.76988215492511" width="192"><g><svg viewBox="0 0 192 113.76988215492511" height="113.76988215492511" width="192"><g><svg viewBox="0 0 192 113.76988215492511" height="113.76988215492511" width="192"><g transform="matrix(1,0,0,1,0,70.3143513930507)"><svg viewBox="0 0 192 43.45553076187441" height="43.45553076187441" width="192"><g><svg viewBox="0 0 192 43.45553076187441" height="43.45553076187441" width="192"><g><svg viewBox="0 0 192 43.45553076187441" height="43.45553076187441" width="192"><g transform="matrix(1,0,0,1,0,0)"><svg width="192" viewBox="0.95 -35 156.84 35.5" height="43.45553076187441" data-palette-color="#919c5e"><g class="undefined-text-0" data-fill-palette-color="primary" id="text-0"><path d="M7.4 0L7.4-1.5 23.7-1.5 13.45-25.65 2.55 0 0.95 0 13.45-29.5 25.95 0 7.4 0ZM49.65-29L49.65 0 48.15 0 48.15-14.5 33.15-14.5 33.15 0 31.65 0 31.65-29 33.15-29 33.15-16 48.15-16 48.15-29 49.65-29ZM61.8 0L61.8-1.5 78.09-1.5 67.84-25.65 56.95 0 55.35 0 67.84-29.5 80.34 0 61.8 0ZM98.24-14.55L98.24-14.55 105.04 0 103.39 0 96.39-15Q96.49-15.05 97.27-15.43 98.04-15.8 98.34-15.98 98.64-16.15 99.34-16.6 100.04-17.05 100.39-17.48 100.74-17.9 101.17-18.48 101.59-19.05 101.79-19.78 101.99-20.5 101.99-21.35L101.99-21.35Q101.99-24.5 98.99-26 95.99-27.5 91.54-27.5L91.54-27.5 87.54-27.5 87.54 0 86.04 0 86.04-29 91.54-29Q97.44-29 100.47-26.95 103.49-24.9 103.49-21.35L103.49-21.35Q103.49-19.05 101.94-17.28 100.39-15.5 98.24-14.55ZM126.44-27.48Q124.74-28 122.24-28 119.74-28 118.04-27.48 116.34-26.95 114.92-25.53 113.49-24.1 112.79-21.38 112.09-18.65 112.09-14.5 112.09-10.35 112.79-7.63 113.49-4.9 114.92-3.48 116.34-2.05 118.04-1.53 119.74-1 122.24-1 124.74-1 126.44-1.53 128.14-2.05 129.56-3.48 130.99-4.9 131.69-7.63 132.39-10.35 132.39-14.5 132.39-18.65 131.69-21.38 130.99-24.1 129.56-25.53 128.14-26.95 126.44-27.48ZM131.19-3.05Q128.49 0.5 122.24 0.5 115.99 0.5 113.29-3.05 110.59-6.6 110.59-14.5 110.59-22.4 113.29-25.95 115.99-29.5 122.24-29.5 128.49-29.5 131.19-25.95 133.89-22.4 133.89-14.5 133.89-6.6 131.19-3.05ZM138.39-7.55L140.19-7.55Q142.39-1 148.69-1L148.69-1Q152.94-1 154.61-3.43 156.29-5.85 156.29-10.1L156.29-10.1 156.29-35 157.79-35 157.79-10.1Q157.79 0.5 148.69 0.5L148.69 0.5Q144.39 0.5 142.06-1.65 139.74-3.8 138.39-7.55L138.39-7.55Z" fill="#919c5e" data-fill-palette-color="primary"></path></g></svg></g></svg></g></svg></g></svg></g><g transform="matrix(1,0,0,1,65.972264595897,0)"><svg viewBox="0 0 60.05547080820601 60.05554351291043" height="60.05554351291043" width="60.05547080820601"><g><svg xmlns="http://www.w3.org/2000/svg" xmlns:xlink="http://www.w3.org/1999/xlink" xmlns:a="http://ns.adobe.com/AdobeSVGViewerExtensions/3.0/" version="1.1" x="0" y="0" viewBox="0.002999999999996561 -0.0011151535186773773 95.11899999999999 95.11911515351868" enable-background="new -2 -2.816 100 100" xml:space="preserve" height="60.05554351291043" width="60.05547080820601" class="icon-icon-0" data-fill-palette-color="accent" id="icon-0"><path fill-rule="evenodd" clip-rule="evenodd" d="M79.969 35.405c0.219-0.984 1.324-1.083 1.548-2.068-1.039 0.007-2.121 0.056-2.928-0.167 3.37-3.159 0.913-8.744 1.02-13.591 0.049-2.241 0.958-3.851 1.544-5.677-1.652 0.5-3.045 1.273-4.989 1.383-3.524 0.193-7.562-1.347-10.835-0.851-1.411 0.216-2.533 1.29-3.611 1.552-0.002-0.802-0.002-1.604-0.004-2.407-0.965 0.296-1.646 1.79-2.404 1.722-1.396-7.555-9.939-7.95-11.712-15.125-0.011-0.104-0.026-0.203-0.172-0.171-1.742 7.312-10.534 7.586-12.026 15.147-0.981-0.219-1.082-1.325-2.064-1.545 0.004 1.037 0.056 2.118-0.169 2.923-3.158-3.367-8.744-0.912-13.589-1.018-2.243-0.048-3.853-0.959-5.677-1.543 0.499 1.651 1.272 3.043 1.38 4.988 0.196 3.527-1.346 7.564-0.849 10.838 0.214 1.41 1.289 2.53 1.553 3.609-0.803 0-1.605 0.001-2.409 0.002 0.298 0.968 1.791 1.646 1.723 2.406-1.912 0.367-3.363 0.923-4.47 1.896-2.463 2.168-3.991 5.67-6.7 7.747-1.27 0.975-2.613 1.324-4.126 2.24 7.312 1.741 7.587 10.534 15.148 12.024-0.221 0.983-1.324 1.084-1.545 2.065 1.037-0.004 2.118-0.053 2.924 0.168-3.368 3.16-0.913 8.748-1.017 13.591-0.049 2.239-0.959 3.85-1.543 5.677 1.656-0.496 3.027-1.271 4.988-1.38 3.521-0.194 7.564 1.328 10.835 0.848 1.439-0.211 2.522-1.273 3.611-1.549 0.001 0.804 0.002 1.604 0.002 2.404 0.968-0.296 1.646-1.788 2.407-1.718 0.359 1.918 0.932 3.355 1.896 4.467 2.146 2.481 5.667 3.991 7.746 6.697 0.983 1.282 1.315 2.603 2.242 4.129 1.742-7.312 10.533-7.587 12.024-15.148 0.983 0.222 1.084 1.324 2.065 1.546-0.004-1.037-0.054-2.119 0.17-2.924 3.156 3.369 8.744 0.911 13.588 1.016 2.242 0.054 3.853 0.961 5.68 1.544-0.496-1.652-1.273-3.025-1.382-4.987-0.196-3.52 1.33-7.565 0.85-10.837-0.213-1.439-1.276-2.519-1.553-3.609 0.805-0.002 1.605-0.002 2.408-0.004-0.298-0.965-1.791-1.644-1.723-2.404 1.91-0.364 3.362-0.924 4.47-1.897 2.464-2.167 3.99-5.668 6.699-7.746 1.271-0.976 2.615-1.325 4.129-2.24C87.807 45.687 87.53 36.895 79.969 35.405zM79.453 34.2c-2.679 2.997-2.074 9.276-5.666 11.359-1.195-0.698-1.847-1.938-2.583-3.093 0.626-2.412 1.597-4.481 3.089-6.024-2.959-0.075-4.789-1.285-6.709-2.402-0.16-1.216-0.39-2.365-0.35-3.782C72.545 29.048 74.44 33.987 79.453 34.2zM66.585 66.549c-1.595-0.355-3.143-0.279-4.819 0.006 0.49-1.068 0.488-3.232-0.002-4.299 0.303-0.158 0.535-0.386 0.688-0.69 1.036 0.507 3.3 0.518 4.129-0.177C66.755 62.572 66.053 64.982 66.585 66.549zM28.533 28.578c1.594 0.352 3.144 0.283 4.818-0.005-0.489 1.068-0.487 3.23 0.003 4.298-0.36 0.216-0.646 0.503-0.859 0.862-0.904-0.641-3.075-0.743-3.956 0.004C28.361 32.556 29.064 30.145 28.533 28.578zM63.266 43.182c0.093 1.106-1.472 2.01-2.415 2.121-1.425 0.174-2.621-0.97-2.647-2.415-0.033-1.963 1.67-1.625 3.097-1.613-0.064-0.016-0.124-0.055-0.186-0.067l-0.617-0.11c0.179 0.014 0.39 0.523 0.615 0.571l0.26 0.516c-0.025 0-0.049 0-0.074 0C62.188 42.184 63.195 42.39 63.266 43.182zM66.551 33.353c-1.069-0.487-3.232-0.484-4.302 0.005-0.155-0.303-0.385-0.53-0.688-0.687 0.507-1.036 0.516-3.302-0.177-4.127 1.203-0.155 3.561 0.493 5.16-0.006C66.191 30.132 66.264 31.681 66.551 33.353zM72.402 37.131c-1.995 2.365-1.584 7.126-4.291 8.777-0.666-4.899-2.403-8.725-4.999-11.691C67.049 33.014 68.638 37.024 72.402 37.131zM56.924 45.194c-0.256 0.579-0.754 0.938-1.399 1.137-1.721 0.536-2.812-0.474-3.054-2.139-0.228-1.557 0.959-2.56 2.357-2.704 0.88-0.091 2.724 0.912 2.566 1.957l-0.337-0.202C57.445 43.619 57.124 44.748 56.924 45.194zM51.538 52.184L51.4 51.833c0.031-0.047 0.078-0.334 0.119-0.377-0.854-0.071-1.416 0.051-2.229-0.377-0.804-0.422-0.911-0.814-0.741-1.759 0.201-1.115 0.073-1.864 1.303-2.072 0.663-0.113 1.907-0.268 2.476 0.147 0.189 0.651 0.4 2.68 0.101 3.3-0.186 0.373-0.626-0.511-0.907 1.489C51.527 52.184 51.532 52.184 51.538 52.184zM40.742 56.824l0.067 0.066c-0.021-0.007-0.039-0.025-0.061-0.036 0.393 1.135-0.674 2.726-1.557 3.294-1.071 0.694-3.094 0.422-3.715-0.89-0.288-0.611 0.034-1.555 0.29-2.126 0.35-0.783 0.756-1.793 1.592-1.927 0.744-0.115 1.279 0.287 1.898 0.611 0.531 0.272 1.006 0.807 1.493 1.037C40.746 56.845 40.746 56.833 40.742 56.824zM38.984 53.6c-1.184-0.669-1.533-1.962-0.979-3.212 0.756-1.701 2.01-1.204 3.674-1.204h-0.337c0.712 0 0.429 0.79 0.812 1.573 0.292 0.598 0.582 0.851 0.542 1.573-0.055 0.971-0.473 1.489-1.428 1.538C40.563 53.905 39.593 53.943 38.984 53.6zM54.213 32.316c1.395 0.355 0.59 2.411 0.153 3.099-0.63 0.995-2.592 0.864-3.46 0.07-0.886-0.809-0.789-2.194 0.217-3.047 0.552-0.466 2.372-0.67 3.099-0.111L54.213 32.316zM50.427 36.638c0.961 0.04 3.301 0.162 3.184 1.617l-0.02-0.051c0.058 0.203 0.088 0.415 0.09 0.658-0.002 1.235-0.056 2.433-1.553 2.686-1.462 0.248-2.192-0.944-2.903-2.075-0.387-0.618-0.299-1.176-0.084-1.886C49.382 36.789 49.592 36.604 50.427 36.638zM49.094 40.689l0.338 0.066c-0.066 0.004-0.127-0.004-0.188-0.015 0.082 0.035 0.161 0.074 0.257 0.117 1.371 0.608 1.84 1.808 1.108 3.172-0.864 1.625-2.055 1.459-3.484 0.657-0.382-0.215-1.534-0.658-1.729-1.041-0.288-0.565 0.312-1.64 0.59-2.022 0.429-0.587 0.87-1.263 1.606-1.404 0.691-0.133 1.122 0.43 1.651 0.521C49.197 40.721 49.152 40.702 49.094 40.689zM47.566 47.782c-0.28 1.105-1.996 2.843-3.12 2.831-1.223-0.018-1.844-2.063-1.692-3.176 0.099-0.724 0.585-1.233 1.137-1.705 0.807-0.689 1.104-0.789 2.103-0.79l-0.135 0.067C46.871 45.104 47.794 46.891 47.566 47.782zM47.397 34.883c-1.159-0.126-2.529-0.561-2.953-1.815-0.201-0.597-0.024-1.621 0.307-2.168 0.382-0.629 0.931-0.465 1.646-0.397 1.079 0.103 2.557 0.806 2.485 2.157l-0.068-0.135C48.816 33.925 49.156 35.076 47.397 34.883zM45.984 35.494c0.606 0.237 1.079 0.336 1.755 0.338l-0.068 0.068c1.362 0.19 0.708 2.39-0.099 2.92-1.182 0.779-2.064 1.248-3.268 0.308-0.59-0.459-1.006-0.869-0.951-1.669 0.044-0.65 0.335-1.617 0.879-2.05C44.788 34.965 45.39 35.261 45.984 35.494zM43.147 33.474c0.066 0.405 0.232 0.853 0.135 1.283-0.164 0.738-1.104 2.824-1.816 3.174-1.145 0.566-2.635-0.682-2.92-1.753-0.288-1.076 0.347-3.073 1.495-3.5 0.79-0.292 3.328 0.184 3.31 1.27L43.147 33.474zM40.792 39.497c0.64-0.31 2.582-0.421 2.81 0.518 0.49 0.301 0.727 0.562 0.768 1.417 0.042 0.864 0.094 1.652-0.537 2.299-0.621 0.635-1.428 1.27-2.087 1.825-1.005 0.847-1.383 0.646-2.148-0.354-0.54-0.708-0.69-1.136-0.554-2.007C39.229 42.012 39.64 40.056 40.792 39.497zM43.431 58.597c-0.111-0.027-0.199 0.587-0.325 0.587h0.472C43.528 59.184 43.479 58.572 43.431 58.597c0.951 0.238 1.39 0.403 1.921 1.378 0.677 1.236 0.692 3.27-0.976 3.628-1.155 0.246-2.766-0.019-2.954-1.229C41.229 61.127 42.311 59.208 43.431 58.597zM45.531 56.409c-0.539-1.312 0.143-3.481 1.751-3.505 0.733-0.011 1.845 0.058 2.463 0.471 0.55 0.366-0.005 0.888 1.28 1.411 0.002-0.087 0.004-0.176 0.004-0.262l-0.018 0.469c-0.049-0.068-0.166-0.141-0.21-0.211-0.005 1.446-0.124 2.938-1.603 3.633C47.608 59.158 46.148 57.906 45.531 56.409zM47.48 61.324c0.537-1.161 2.145-0.398 3.248-0.396-0.044-0.042-0.086-0.076-0.131-0.132l0.338 0.132c-0.066 0.009-0.137 0-0.207 0 0.328 0.335 0.642 0.413 0.75 1.024 0.143 0.773 0.115 1.618-0.138 2.353-0.411 1.181-1.792 2.249-2.898 1.212C47.603 64.731 46.968 62.428 47.48 61.324zM54.307 56.743l-0.272-0.134c0.843 0.323 2.08 0.927 2.5 1.865 0.541 1.218-0.698 3.561-1.959 3.954-1.412 0.439-2.081-1.611-2.021-2.71C52.595 58.923 53.15 56.488 54.307 56.743zM55.133 53.376c-0.99 0.33-2.085-0.564-2.183-1.49-0.126-1.221 0.226-3.391 1.75-3.295 0.914 0.059 2.193 1.104 2.096 2.143l0.068-0.136C56.973 51.722 56.166 53.034 55.133 53.376zM55.299 39.535c-0.532-1.082-0.85-2.427 0.218-3.29 0.615-0.496 2.367-0.586 2.964-0.02 0.511 0.483 0.596 1.122 0.596 1.821 0 0.414 0.209 1.603-0.008 1.942-0.06 0.095-0.343 0.229-0.611 0.348 0.004 0.002 0.011 0.001 0.017 0.004l-0.475 0.203c0.085-0.045 0.269-0.123 0.458-0.207C57.31 39.911 55.993 40.953 55.299 39.535zM58.076 47.426c0.877-0.949 1.936-1.312 3.173-0.763 0.691 0.31 1.58 1.457 1.483 2.313-0.017 0.882-0.947 1.687-1.156 2.42-1.198 0.04-1.851-0.337-2.619-1.136C58.037 49.306 56.792 48.811 58.076 47.426zM60.872 31.812c-3.246-2.2-6.504-4.388-11.701-4.632 1.054-3.303 6.373-2.346 8.596-4.481C58.17 26.277 61.394 27.876 60.872 31.812zM48.313 27.008c-2.594 0.188-2.234-2.583-4.476-2.747 1.251-1.156 2.822-1.994 3.607-3.616 0.943 1.352 2.134 2.453 3.444 3.437C49.759 24.787 48.554 25.416 48.313 27.008zM45.903 27.011c-4.898 0.667-8.726 2.403-11.69 5-1.204-3.937 2.807-5.528 2.914-9.292C39.49 24.713 44.252 24.305 45.903 27.011zM34.65 37.479c0.556-0.318 1.1-0.722 1.75-0.691 0.805 0.04 1.167 0.926 1.826 1.01l-0.238-0.21c-0.153-0.1-0.29-0.205-0.37-0.328l0.37 0.328c0.374 0.239 0.871 0.443 1.052 0.798 0.501 0.984-0.721 3.039-1.538 3.546-0.999 0.618-3.069 0.473-3.542-0.809-0.212-0.574-0.185-1.203-0.185-1.834C33.773 38.33 33.842 37.942 34.65 37.479zM37.167 44.507c0.909 0.964-0.077 2.677-0.078 3.677h-0.068c-0.691 1-2.124 1.591-3.234 0.93-1.448-0.862-1.521-2.646-0.664-3.995C33.978 43.775 36.028 43.3 37.167 44.507zM31.808 34.421c-2.361 3.085-4.398 6.494-4.632 11.702-3.178-1.292-2.468-6.481-4.481-8.941C26.478 37.159 28.056 33.361 31.808 34.421zM27.004 47.327c-0.253 1.98-2.553 1.919-2.748 3.959-1.156-1.252-1.993-2.824-3.615-3.609 1.351-0.941 2.452-2.133 3.436-3.442C24.729 45.588 25.822 46.502 27.004 47.327zM27.006 49.22c0.667 4.897 2.404 8.726 5 11.69-3.938 1.201-5.527-2.809-9.291-2.915C24.709 55.631 24.3 50.87 27.006 49.22zM28.567 61.773c1.069 0.487 3.23 0.485 4.3-0.005 0.155 0.305 0.385 0.535 0.688 0.688-0.506 1.037-0.515 3.301 0.177 4.127-1.18 0.177-3.593-0.526-5.16 0.006C28.927 64.997 28.856 63.445 28.567 61.773zM31.966 55.027c-1.061-0.911 0.107-2.53 0.662-3.348 0.46-0.682 0.583-0.541 1.355-0.647 0.801-0.11 1.309-0.412 2.166-0.412l0.134 0.202c0.497 1.305-0.205 2.889-1.09 3.904C34.417 55.613 32.98 55.9 31.966 55.027zM34.244 63.315c3.287 2.219 6.562 4.445 11.875 4.631-1.293 3.18-6.481 2.468-8.94 4.484C37.066 68.615 33.619 67.298 34.244 63.315zM47.149 69.184c0.344 0 0.688 0 1.033 0 0.723 1 1.578 1.787 3.098 2.215-1.252 1.156-2.824 1.725-3.608 3.346-0.942-1.35-2.133-2.05-3.443-3.032C45.464 70.996 46.601 70.184 47.149 69.184zM49.215 68.117c4.9-0.669 8.725-2.404 11.688-5.002 1.205 3.941-2.807 5.529-2.913 9.292C55.627 70.412 50.863 70.825 49.215 68.117zM59.352 58.019c-1.735-0.294-3.026-1.504-2.505-3.306 0.126-0.434 0.878-1.482 1.365-1.65 0.469-0.164 1.205 1.121 1.623 1.121h-0.202c0.915 0 2.367 0.91 2.565 1.983C62.568 58.145 61.093 58.315 59.352 58.019zM63.312 60.878c2.217-3.288 4.442-6.562 4.63-11.874 3.18 1.293 2.47 6.48 4.482 8.939C68.602 58.048 67.292 61.5 63.312 60.878zM68.114 47.801c0.253-1.983 2.553-1.92 2.746-3.959 1.159 1.251 1.993 2.824 3.618 3.609-1.352 0.941-2.455 2.133-3.438 3.441C70.388 49.537 69.294 48.624 68.114 47.801zM78.914 16.142c-1.908 5.138 2.321 13.208-1.701 16.514-3.267-1.051-5.229-4.263-9.806-3.431 0.087-0.885 0.568-1.38 0.684-2.238-0.933 0.155-1.502 0.678-2.577 0.691 1.069-4.163-2.195-6.68-3.279-9.8C65.348 13.174 73.623 18.046 78.914 16.142zM60.512 15.645c0.2-0.029 0.307 0.037 0.345 0.17 0.177 4.86 4.945 6.807 3.625 12.036-1.167-0.267-2.606-0.258-3.786-0.511-0.793-2.02-2.272-3.35-1.897-6.535-0.865-0.021-1.225 1.041-2.063 1.551-1.093 0.667-3.478 1.502-4.47 1.38-1.349-0.166-1.804-1.529-2.927-2.233C50.782 17.277 57.773 18.583 60.512 15.645zM47.426 3.273c2.486 5.316 9.832 5.76 10.506 12.89-2.619 1.014-5.9 1.134-7.911 2.76-0.615 0.5-0.885 1.073-1.544 1.55-0.294-0.681-0.629-1.32-0.863-2.064-0.519 0.629-0.78 1.513-1.202 2.237-0.765-0.61-1.18-1.205-1.892-1.718-1.968-1.413-5.159-1.78-7.744-2.743C37.343 8.903 44.986 8.685 47.426 3.273zM34.196 15.671c2.998 2.675 9.28 2.064 11.358 5.664-0.698 1.195-1.938 1.847-3.094 2.583-2.41-0.625-4.478-1.596-6.023-3.091-0.075 2.962-1.286 4.789-2.4 6.711-1.218 0.159-2.367 0.388-3.784 0.348C29.046 22.571 33.979 20.684 34.196 15.671zM16.137 16.206c5.139 1.911 13.208-2.319 16.514 1.704-1.051 3.264-4.264 5.229-3.431 9.807-0.886-0.089-1.38-0.567-2.236-0.686 0.154 0.934 0.677 1.502 0.69 2.578-4.163-1.071-6.68 2.193-9.801 3.278C13.17 29.774 18.041 21.498 16.137 16.206zM27.848 30.642c-0.269 1.164-0.26 2.606-0.513 3.784-2.015 0.796-3.371 2.249-6.534 1.899-0.022 0.864 1.039 1.225 1.55 2.061 0.667 1.094 1.502 3.479 1.38 4.472-0.164 1.349-1.53 1.802-2.232 2.926-4.19-1.596-3.11-8.476-5.859-11.518C20.653 34.188 22.542 29.299 27.848 30.642zM3.269 47.695c5.318-2.483 5.764-9.827 12.89-10.506 1.013 2.618 1.136 5.901 2.76 7.91 0.499 0.617 1.074 0.886 1.548 1.546-0.679 0.295-1.32 0.629-2.062 0.861 0.629 0.518 1.513 0.781 2.238 1.201-0.124 0.736-0.965 0.756-1.375 1.207-1.61 2.232-2.09 5.588-3.088 8.429C8.91 57.767 8.673 50.142 3.269 47.695zM15.667 60.927c2.678-2.998 2.07-9.275 5.665-11.36 1.194 0.698 1.846 1.938 2.583 3.097-0.626 2.41-1.597 4.478-3.089 6.021 2.96 0.074 4.788 1.284 6.71 2.402 0.159 1.216 0.388 2.363 0.348 3.784C22.566 66.077 20.679 61.145 15.667 60.927zM16.201 78.987c1.852-5.157-2.16-12.946 1.53-16.516 3.455 0.918 5.31 4.297 9.98 3.431-0.089 0.886-0.569 1.38-0.686 2.238 0.935-0.153 1.502-0.678 2.58-0.69-1.07 4.161 2.192 6.678 3.277 9.8C29.77 81.954 21.494 77.08 16.201 78.987zM34.261 79.483c-0.072-5.021-4.962-6.905-3.624-12.208 1.163 0.267 2.604 0.258 3.783 0.512 0.792 2.021 2.271 3.352 1.899 6.535 0.865 0.019 1.226-1.039 2.062-1.553 1.093-0.664 3.477-1.499 4.471-1.378 1.347 0.162 1.802 1.527 2.926 2.232C44.182 77.814 37.302 76.73 34.261 79.483zM47.69 91.855c-2.486-5.314-9.832-5.762-10.505-12.892 2.619-1.011 5.901-1.137 7.909-2.758 0.619-0.502 0.886-1.075 1.547-1.552 0.295 0.679 0.629 1.322 0.862 2.065 0.518-0.633 0.78-1.514 1.201-2.24 0.164 0.027 0.447 0.063 0.517 0.173 1.911 2.883 5.548 3.049 9.119 4.29C57.765 86.214 50.138 86.449 47.69 91.855zM60.921 79.456c-2.998-2.675-9.28-2.063-11.358-5.664 0.698-1.197 1.938-1.847 3.094-2.583 2.413 0.626 4.48 1.595 6.024 3.09 0.074-2.962 1.284-4.789 2.399-6.712 1.219-0.158 2.366-0.386 3.784-0.348C66.069 72.556 61.14 74.443 60.921 79.456zM78.982 78.921c-5.141-1.912-13.209 2.318-16.514-1.704 1.05-3.265 4.263-5.228 3.429-9.808 0.886 0.089 1.38 0.57 2.235 0.689-0.153-0.938-0.675-1.508-0.689-2.583 4.34 1.138 6.658-2.444 10.145-3.277C81.634 65.868 77.186 73.593 78.982 78.921zM67.271 64.484c0.269-1.163 0.26-2.604 0.511-3.786 2.017-0.795 3.371-2.247 6.533-1.896 0.016-0.794-1.048-1.241-1.548-2.063-0.671-1.099-1.501-3.483-1.38-4.47 0.07-0.583 1.723-2.787 2.574-2.926 3.658 2.015 2.896 8.46 5.516 11.516C74.455 60.932 72.57 65.825 67.271 64.484zM78.959 57.936c-1.012-2.615-1.135-5.899-2.76-7.909-0.5-0.616-1.075-0.884-1.548-1.545 0.677-0.296 1.318-0.629 2.062-0.863-0.629-0.517-1.515-0.779-2.236-1.201 0.175-0.684 0.869-0.851 1.373-1.205 1.61-2.231 2.09-5.589 3.086-8.431 7.274 0.577 7.511 8.203 12.915 10.651C86.531 49.914 86.086 57.258 78.959 57.936z" fill="#df5155" data-fill-palette-color="accent"></path></svg></g></svg></g><g></g></svg></g></svg></g></svg></g></svg></g><defs></defs></svg><rect width="320" height="360" fill="none" stroke="none" visibility="hidden"></rect></g></svg></g></svg>